<svg width="40" height="40" viewBox="0 0 40 40" fill="none" xmlns="http://www.w3.org/2000/svg">
<rect width="40" height="40" rx="20" fill="white"/>
<path fill-rule="evenodd" clip-rule="evenodd" d="M27.2381 12.2565C27.2381 16.2642 23.9975 19.5131 20 19.5131C16.0025 19.5131 12.7619 16.2642 12.7619 12.2565C12.7619 8.24886 16.0025 5 20 5C23.9975 5 27.2381 8.24886 27.2381 12.2565ZM24.8254 12.2565C24.8254 14.9283 22.665 17.0942 20 17.0942C17.335 17.0942 15.1746 14.9283 15.1746 12.2565C15.1746 9.58475 17.335 7.41884 20 7.41884C22.665 7.41884 24.8254 9.58475 24.8254 12.2565Z" fill="black"/>
<path d="M20 23.1413C12.1896 23.1413 5.53493 27.7715 3 34.2584C3.61753 34.8732 4.26805 35.4547 4.94866 36C6.83629 30.0443 12.7579 25.5602 20 25.5602C27.2421 25.5602 33.1637 30.0444 35.0513 36C35.732 35.4547 36.3825 34.8732 37 34.2584C34.4651 27.7715 27.8104 23.1413 20 23.1413Z" fill="black"/>
</svg>
