<svg width="34" height="34" viewBox="0 0 34 34" fill="none" xmlns="http://www.w3.org/2000/svg">
<path d="M5.6665 26.9167V24.0833H8.49984V14.1667C8.49984 12.2069 9.09011 10.4715 10.2707 8.96042C11.4512 7.4257 12.9859 6.42222 14.8748 5.95V4.95834C14.8748 4.36806 15.0755 3.87222 15.4769 3.47083C15.9019 3.04584 16.4096 2.83334 16.9998 2.83334C17.5901 2.83334 18.086 3.04584 18.4873 3.47083C18.9123 3.87222 19.1248 4.36806 19.1248 4.95834V5.95C21.0137 6.42222 22.5484 7.4257 23.729 8.96042C24.9096 10.4715 25.4998 12.2069 25.4998 14.1667V24.0833H28.3332V26.9167H5.6665ZM16.9998 31.1667C16.2207 31.1667 15.5478 30.8951 14.9811 30.3521C14.438 29.7854 14.1665 29.1125 14.1665 28.3333H19.8332C19.8332 29.1125 19.5498 29.7854 18.9832 30.3521C18.4401 30.8951 17.779 31.1667 16.9998 31.1667ZM11.3332 24.0833H22.6665V14.1667C22.6665 12.6083 22.1116 11.2743 21.0019 10.1646C19.8922 9.05486 18.5582 8.5 16.9998 8.5C15.4415 8.5 14.1075 9.05486 12.9978 10.1646C11.888 11.2743 11.3332 12.6083 11.3332 14.1667V24.0833Z" fill="white"/>
</svg>
